<?xml version="1.0" encoding="utf-8"?>
<!-- Generator: Adobe Illustrator 18.0.0, SVG Export Plug-In . SVG Version: 6.00 Build 0)  -->
<!DOCTYPE svg PUBLIC "-//W3C//DTD SVG 1.0//EN" "http://www.w3.org/TR/2001/REC-SVG-20010904/DTD/svg10.dtd">
<svg version="1.0" id="Default" xmlns="http://www.w3.org/2000/svg" xmlns:xlink="http://www.w3.org/1999/xlink" x="0px" y="0px"
	 viewBox="0 0 566.9 566.9" enable-background="new 0 0 566.9 566.9" xml:space="preserve">
<line fill="none" stroke="#000000" stroke-width="1.5" stroke-linecap="round" stroke-linejoin="round" x1="36" y1="463.8" x2="202.5" y2="463.8"/>
<polyline fill="none" stroke="#000000" stroke-width="3" stroke-linecap="round" stroke-linejoin="round" points="369.1,94.2 
	285.8,186.6 202.5,279 "/>
<line fill="none" stroke="#000000" stroke-width="1.5" stroke-linecap="round" stroke-linejoin="round" x1="369.1" y1="279" x2="535.7" y2="94.2"/>
<polyline fill="none" stroke="#000000" stroke-width="1.5" stroke-linecap="round" stroke-linejoin="round" points="202.5,463.8 
	285.8,371.4 369.1,279 "/>
<line fill="none" stroke="#000000" stroke-width="3" stroke-linecap="round" stroke-linejoin="round" x1="202.5" y1="279" x2="36" y2="94.2"/>
<polyline fill="none" stroke="#000000" stroke-width="3" stroke-linecap="round" stroke-linejoin="round" points="369.1,463.8 
	285.8,371.4 202.5,279 "/>
<line fill="none" stroke="#000000" stroke-width="2" stroke-linecap="round" stroke-linejoin="round" x1="369.1" y1="279" x2="535.7" y2="463.8"/>
<polyline fill="none" stroke="#000000" stroke-width="2" stroke-linecap="round" stroke-linejoin="round" points="202.5,94.2 
	285.8,186.6 369.1,279 "/>
<line fill="none" stroke="#000000" stroke-width="1.5" stroke-linecap="round" stroke-linejoin="round" x1="202.5" y1="279" x2="369.1" y2="279"/>
<line fill="none" stroke="#000000" stroke-width="2" stroke-linecap="round" stroke-linejoin="round" x1="535.7" y1="463.8" x2="369.1" y2="463.8"/>
<line fill="none" stroke="#000000" stroke-width="2" stroke-linecap="round" stroke-linejoin="round" x1="202.5" y1="94.2" x2="36" y2="94.2"/>
<line fill="none" stroke="#000000" stroke-width="1.5" stroke-linecap="round" stroke-linejoin="round" x1="369.1" y1="94.2" x2="535.7" y2="94.2"/>
<line fill="none" stroke="#000000" stroke-width="3" stroke-linecap="round" stroke-linejoin="round" x1="202.5" y1="279" x2="36" y2="463.8"/>
<ellipse fill="#F97D0D" cx="369.1" cy="94.2" rx="4.9" ry="5.4"/>
<ellipse fill="#F97D0D" cx="202.5" cy="279" rx="4.9" ry="5.4"/>
<ellipse fill="#F97D0D" cx="369.1" cy="279" rx="4.9" ry="5.4"/>
<ellipse fill="#F97D0D" cx="202.5" cy="94.2" rx="4.9" ry="5.4"/>
<ellipse fill="#F97D0D" cx="36" cy="94.2" rx="4.9" ry="5.4"/>
<ellipse fill="#F97D0D" cx="36" cy="463.8" rx="4.9" ry="5.4"/>
<ellipse fill="#F97D0D" cx="202.5" cy="463.8" rx="4.9" ry="5.4"/>
<ellipse fill="#F97D0D" cx="369.1" cy="463.8" rx="4.9" ry="5.4"/>
<ellipse fill="#F97D0D" cx="535.7" cy="463.8" rx="4.9" ry="5.4"/>
<ellipse fill="#F97D0D" cx="535.7" cy="94.2" rx="4.9" ry="5.4"/>
</svg>
