<?xml version="1.0" encoding="utf-8"?>
<!-- Generator: Adobe Illustrator 18.0.0, SVG Export Plug-In . SVG Version: 6.00 Build 0)  -->
<!DOCTYPE svg PUBLIC "-//W3C//DTD SVG 1.0//EN" "http://www.w3.org/TR/2001/REC-SVG-20010904/DTD/svg10.dtd">
<svg version="1.0" id="Default" xmlns="http://www.w3.org/2000/svg" xmlns:xlink="http://www.w3.org/1999/xlink" x="0px" y="0px"
	 viewBox="0 0 566.9 566.9" enable-background="new 0 0 566.9 566.9" xml:space="preserve">
<line  x1="260.2" y1="347" x2="307.8" y2="347"/>
<line  x1="99.8" y1="494.6" x2="468.2" y2="494.6"/>
<line  x1="212.5" y1="51.7" x2="28.3" y2="370.8"/>
<line  x1="355.5" y1="347" x2="396.8" y2="370.8"/>
<line  x1="492.1" y1="370.8" x2="444.4" y2="453.4"/>
<line  x1="515.9" y1="412.1" x2="420.6" y2="412.1"/>
<line  x1="444.4" y1="370.8" x2="492.1" y2="453.4"/>
<line  x1="492.1" y1="370.8" x2="444.4" y2="370.8"/>
<line  x1="444.4" y1="370.8" x2="396.8" y2="370.8"/>
<line  x1="492.1" y1="370.8" x2="539.7" y2="370.8"/>
<line  x1="420.6" y1="412.1" x2="444.4" y2="453.4"/>
<line  x1="444.4" y1="453.4" x2="468.2" y2="494.6"/>
<line  x1="420.6" y1="412.1" x2="396.8" y2="370.8"/>
<line  x1="515.9" y1="412.1" x2="539.7" y2="370.8"/>
<line  x1="492.1" y1="453.4" x2="468.2" y2="494.6"/>
<line  x1="515.9" y1="412.1" x2="492.1" y2="453.4"/>
<line  x1="212.5" y1="347" x2="171.2" y2="370.8"/>
<line  x1="123.6" y1="453.4" x2="75.9" y2="370.8"/>
<line  x1="75.9" y1="453.4" x2="123.6" y2="370.8"/>
<line  x1="147.4" y1="412.1" x2="52.1" y2="412.1"/>
<line  x1="123.6" y1="453.4" x2="147.4" y2="412.1"/>
<line  x1="147.4" y1="412.1" x2="171.2" y2="370.8"/>
<line  x1="123.6" y1="453.4" x2="99.8" y2="494.6"/>
<line  x1="123.6" y1="370.8" x2="75.9" y2="370.8"/>
<line  x1="75.9" y1="370.8" x2="28.3" y2="370.8"/>
<line  x1="123.6" y1="370.8" x2="171.2" y2="370.8"/>
<line  x1="75.9" y1="453.4" x2="99.8" y2="494.6"/>
<line  x1="52.1" y1="412.1" x2="28.3" y2="370.8"/>
<line  x1="75.9" y1="453.4" x2="52.1" y2="412.1"/>
<line  x1="260.2" y1="51.7" x2="307.8" y2="51.7"/>
<line  x1="307.8" y1="51.7" x2="355.5" y2="51.7"/>
<line  x1="260.2" y1="51.7" x2="212.5" y2="51.7"/>
<line  x1="307.8" y1="134.3" x2="284" y2="175.5"/>
<line  x1="331.7" y1="93" x2="355.5" y2="51.7"/>
<line  x1="307.8" y1="134.3" x2="331.7" y2="93"/>
<line  x1="236.3" y1="93" x2="212.5" y2="51.7"/>
<line  x1="260.2" y1="134.3" x2="284" y2="175.5"/>
<line  x1="236.3" y1="93" x2="260.2" y2="134.3"/>
<line  x1="260.2" y1="134.3" x2="307.8" y2="51.7"/>
<line  x1="260.2" y1="51.7" x2="307.8" y2="134.3"/>
<line  x1="236.3" y1="93" x2="331.7" y2="93"/>
<line  x1="284" y1="223.2" x2="284" y2="175.5"/>
<line  x1="236.3" y1="305.7" x2="331.7" y2="305.7"/>
<line  x1="260.2" y1="347" x2="307.8" y2="264.5"/>
<line  x1="260.2" y1="264.5" x2="307.8" y2="347"/>
<line  x1="236.3" y1="305.7" x2="260.2" y2="264.5"/>
<line  x1="260.2" y1="264.5" x2="284" y2="223.2"/>
<line  x1="236.3" y1="305.7" x2="212.5" y2="347"/>
<line  x1="307.8" y1="264.5" x2="331.7" y2="305.7"/>
<line  x1="331.7" y1="305.7" x2="355.5" y2="347"/>
<line  x1="307.8" y1="264.5" x2="284" y2="223.2"/>
<line  x1="260.2" y1="347" x2="212.5" y2="347"/>
<line  x1="307.8" y1="347" x2="355.5" y2="347"/>
<line  x1="539.7" y1="370.8" x2="355.5" y2="51.7"/>
<circle  cx="284" cy="223.2" r="5"/>
<circle  cx="284" cy="175.5" r="5"/>
<circle  cx="307.8" cy="51.7" r="5"/>
<circle  cx="260.2" cy="51.7" r="5"/>
<circle  cx="212.5" cy="51.7" r="5"/>
<circle  cx="355.5" cy="51.7" r="5"/>
<circle  cx="284" cy="93" r="5"/>
<circle  cx="331.7" cy="93" r="5"/>
<circle  cx="236.3" cy="93" r="5"/>
<circle  cx="260.2" cy="134.3" r="5"/>
<circle  cx="307.8" cy="134.3" r="5"/>
<circle  cx="307.8" cy="264.5" r="5"/>
<circle  cx="331.7" cy="305.7" r="5"/>
<circle  cx="355.5" cy="347" r="5"/>
<circle  cx="396.8" cy="370.8" r="5"/>
<circle  cx="444.4" cy="370.8" r="5"/>
<circle  cx="492.1" cy="370.8" r="5"/>
<circle  cx="539.7" cy="370.8" r="5"/>
<circle  cx="515.9" cy="412.1" r="5"/>
<circle  cx="468.2" cy="412.1" r="5"/>
<circle  cx="420.6" cy="412.1" r="5"/>
<circle  cx="444.4" cy="453.4" r="5"/>
<circle  cx="468.2" cy="494.6" r="5"/>
<circle  cx="492.1" cy="453.4" r="5"/>
<circle  cx="307.8" cy="347" r="5"/>
<circle  cx="260.2" cy="347" r="5"/>
<circle  cx="283.5" cy="305.7" r="5"/>
<circle  cx="260.2" cy="264.5" r="5"/>
<circle  cx="236.3" cy="305.7" r="5"/>
<circle  cx="212.5" cy="347" r="5"/>
<circle  cx="171.2" cy="370.8" r="5"/>
<circle  cx="123.6" cy="370.8" r="5"/>
<circle  cx="75.9" cy="370.8" r="5"/>
<circle  cx="28.3" cy="370.8" r="5"/>
<circle  cx="52.1" cy="412.1" r="5"/>
<circle  cx="99.8" cy="412.1" r="5"/>
<circle  cx="147.4" cy="412.1" r="5"/>
<circle  cx="123.6" cy="453.4" r="5"/>
<circle  cx="75.9" cy="453.4" r="5"/>
<circle  cx="99.8" cy="494.6" r="5"/>
</svg>
